<svg xmlns="http://www.w3.org/2000/svg" width="66" height="90" viewBox="0 0 66 90">
  <path fill="#4A5568"
    d="M65.613,8.219 C65.44112,7.85572 65.12081,7.58619 64.73019,7.48072 L52.11319,4.00412 C51.88272,3.94162 51.63663,3.937714 51.40225,3.996308 L34.98825,8.207208 L34.953094,1.375208 C34.949188,0.933798 34.734344,0.515828 34.374974,0.258008 C34.015594,-0.000694808604 33.550754,-0.070112 33.132774,0.070508 L27.273374,2.031408 C26.691344,2.226718 26.308534,2.777498 26.331964,3.390808 L26.578054,10.363508 L16.855354,12.855708 C16.488164,12.949458 16.171764,13.191648 15.988164,13.527588 C15.804574,13.859618 15.765504,14.254148 15.882694,14.617388 L18.585794,23.047088 C18.773294,23.625208 19.308454,24.008028 19.902194,24.008028 C19.976412,24.008028 20.054534,24.000216 20.132664,23.988497 L27.019364,22.832297 L27.253744,29.437797 L13.249744,30.012017 C12.784904,30.031548 12.359124,30.281547 12.120844,30.683897 L9.343544,35.328397 C9.136514,35.672147 9.089634,36.090117 9.214634,36.472897 C9.339634,36.855707 9.624794,37.160397 9.995884,37.316647 L18.745884,40.957247 C18.913854,41.02756 19.093544,41.062717 19.277134,41.062717 C19.335728,41.062717 19.394324,41.058811 19.449014,41.050998 L27.620914,40.019798 L27.636539,40.504178 L27.870919,47.140878 L5.265919,48.504178 C4.801079,48.531522 4.379199,48.793238 4.148719,49.195588 L0.433919,55.683888 C0.234699,56.031548 0.195639,56.449508 0.328449,56.828388 C0.461259,57.207268 0.754229,57.508078 1.125329,57.656508 L13.305329,62.453408 C13.465489,62.515908 13.637359,62.551064 13.813139,62.551064 C13.879545,62.551064 13.945949,62.547158 14.012359,62.535439 L28.336359,60.445639 L29.328549,88.660639 C29.359799,89.410639 29.969169,90.000439 30.715249,90.000439 L34.019949,90.000439 C34.387139,90.000439 34.742609,89.855909 35.000419,89.594189 C35.262139,89.332469 35.402759,88.980909 35.402759,88.613719 L35.254319,59.449719 L49.313319,57.398919 C49.692229,57.344231 50.028159,57.137199 50.246909,56.824699 C50.465659,56.512199 50.547689,56.125479 50.469569,55.750499 L48.676569,47.078599 C48.535949,46.406719 47.930479,45.934099 47.239069,45.976999 L35.188069,46.703559 L35.152913,39.758259 L35.149007,39.070759 L45.074807,37.816859 C45.453717,37.769984 45.793557,37.566859 46.020117,37.258269 C46.242777,36.949679 46.332617,36.562959 46.262307,36.187969 L45.082607,29.887169 C44.953697,29.211389 44.348227,28.730969 43.668507,28.758269 L35.102107,29.109829 L35.063045,21.473129 L61.598045,17.012229 C62.058985,16.934104 62.445705,16.629419 62.633245,16.203639 L65.637145,9.355939 C65.793395,8.996559 65.785585,8.578599 65.613707,8.219239 L65.613,8.219 Z M29.129,4.3245 L32.1954,3.3011 L32.222744,8.9183 L29.312544,9.66439 L29.129,4.3245 Z M32.629,87.2345 L32.04697,87.2345 L31.08994,60.0505 L32.48834,59.84738 L32.629,87.2345 Z M47.461,54.8715 L13.981,59.7504 L3.633,55.6762 L6.1838,51.2231 L46.2108,48.809 L47.461,54.8715 Z M30.629,46.977 L30.39853,40.4106 L30.371186,39.67622 L32.382886,39.42231 L32.386793,39.77387 L32.421949,46.87157 L30.629,46.977 Z M43.27,35.262 L19.465,38.2698 L12.5314,35.3831 L14.1056,32.7503 L42.5826,31.5784 L43.27,35.262 Z M30.008,29.3284 L29.76191,22.3714 L32.28921,21.94562 L32.328273,29.23082 L30.008,29.3284 Z M60.395,14.4184 L20.848,21.0668 L18.9574,15.1723 L28.3129,12.7739 C28.316806,12.7739 28.324619,12.769993 28.328525,12.769993 L51.730525,6.766093 L62.453525,9.719193 L60.395,14.4184 Z" />
</svg>